<svg data-name="Light 1px/file_add" xmlns="http://www.w3.org/2000/svg" width="25" height="25" viewBox="0 0 25 25">
    <path data-name="Light 1px/file_add background" style="fill:#fff" d="M0 0h25v25H0z"/>
    <path data-name="Combined Shape" d="M18.75 22.916H6.25a3.128 3.128 0 0 1-3.125-3.125V5.208A3.128 3.128 0 0 1 6.25 2.083h10.164c.08 0 .165 0 .252.01h.056a3.135 3.135 0 0 1 1.9.9l2.336 2.336a3.13 3.13 0 0 1 .9 1.957c.007.089.01.172.01.252v12.253a3.128 3.128 0 0 1-3.118 3.125zM6.25 3.125a2.085 2.085 0 0 0-2.083 2.083v14.583a2.085 2.085 0 0 0 2.083 2.083h12.5a2.085 2.085 0 0 0 2.083-2.083V8.333h-3.124a2.086 2.086 0 0 1-2.084-2.084V3.125zm10.417.016v3.108a1.044 1.044 0 0 0 1.042 1.042h3.109a2.083 2.083 0 0 0-.593-1.22l-2.338-2.336a2.093 2.093 0 0 0-1.162-.588h-.024z"/>
    <path d="M12.5 9.896a.521.521 0 0 0-.521.521v2.6H9.375a.521.521 0 1 0 0 1.042h2.6v2.6a.521.521 0 1 0 1.042 0v-2.6h2.6a.521.521 0 1 0 0-1.042h-2.6v-2.6a.521.521 0 0 0-.517-.521z"/>
</svg>
