<svg data-name="Light 1px/play_circled" xmlns="http://www.w3.org/2000/svg" width="25" height="25" viewBox="0 0 25 25">
    <path data-name="Light 1px/play_circled background" style="fill:#fff" d="M0 0h25v25H0z"/>
    <path data-name="Combined Shape" d="M12.5 22.916A10.417 10.417 0 1 1 22.916 12.5 10.428 10.428 0 0 1 12.5 22.916zm0-19.792a9.375 9.375 0 1 0 9.375 9.375A9.386 9.386 0 0 0 12.5 3.125z"/>
    <path data-name="Combined Shape" d="M10.419 17.228a2.089 2.089 0 0 1-2.086-2.086V9.859a2.089 2.089 0 0 1 2.087-2.087 2.053 2.053 0 0 1 1.038.282l4.575 2.642a2.084 2.084 0 0 1 0 3.608l-4.575 2.641a2.052 2.052 0 0 1-1.039.283zm0-8.414a1.06 1.06 0 0 0-.726.294 1.029 1.029 0 0 0-.318.75v5.284a1.044 1.044 0 0 0 1.043 1.043 1.027 1.027 0 0 0 .515-.142l4.579-2.641a1.041 1.041 0 0 0 0-1.8l-4.579-2.646a1.028 1.028 0 0 0-.519-.141z"/>
</svg>
