<svg data-name="Component 2287 – 3" xmlns="http://www.w3.org/2000/svg" width="32" height="32" viewBox="0 0 32 32">
    <rect data-name="Rectangle 3956" width="32" height="32" rx="5" style="fill:#ffffff00"/>
    <g data-name="Light 1px/bold">
        <path data-name="Light 1px/bold background" style="fill:#ffffff00" d="M0 0h25v25H0z" transform="translate(4 4)"/>
        <path data-name="Combined Shape" d="M18.583 25.875h-4.948a3.389 3.389 0 0 1-3.385-3.385V10.534a3.413 3.413 0 0 1 3.409-3.409h4.4a4.688 4.688 0 0 1 2.433 8.7 5.209 5.209 0 0 1-1.909 10.05zM11.292 16.5v5.99a2.346 2.346 0 0 0 2.344 2.344h4.947a4.167 4.167 0 0 0 0-8.333zm2.367-8.333a2.37 2.37 0 0 0-2.367 2.367v4.924h6.77a3.646 3.646 0 0 0 0-7.292z"/>
    </g>
</svg>
