<svg data-name="Component 2317 – 5" xmlns="http://www.w3.org/2000/svg" width="32" height="32" viewBox="0 0 32 32">
    <rect data-name="Rectangle 4046" width="32" height="32" rx="5" style="fill:#ffffff00"/>
    <g data-name="Light 1px/category">
        <path data-name="Light 1px/category background" style="fill:#ffffff00" d="M0 0h25v25H0z" transform="translate(4 4)"/>
        <path data-name="Combined Shape" d="M22.75 25.875h-2.084a3.128 3.128 0 0 1-3.125-3.125v-2.084a3.128 3.128 0 0 1 3.125-3.125h2.084a3.128 3.128 0 0 1 3.125 3.125v2.084a3.128 3.128 0 0 1-3.125 3.125zm-2.084-7.292a2.085 2.085 0 0 0-2.083 2.083v2.084a2.085 2.085 0 0 0 2.083 2.083h2.084a2.085 2.085 0 0 0 2.083-2.083v-2.084a2.085 2.085 0 0 0-2.083-2.083zm-8.332 7.292H10.25a3.128 3.128 0 0 1-3.125-3.125v-2.084a3.128 3.128 0 0 1 3.125-3.125h2.084a3.128 3.128 0 0 1 3.125 3.125v2.084a3.128 3.128 0 0 1-3.125 3.125zm-2.084-7.292a2.085 2.085 0 0 0-2.083 2.083v2.084a2.085 2.085 0 0 0 2.083 2.083h2.084a2.085 2.085 0 0 0 2.083-2.083v-2.084a2.085 2.085 0 0 0-2.083-2.083zm12.5-3.125h-2.084a3.128 3.128 0 0 1-3.125-3.125V10.25a3.128 3.128 0 0 1 3.125-3.125h2.084a3.128 3.128 0 0 1 3.125 3.125v2.084a3.128 3.128 0 0 1-3.125 3.124zm-2.084-7.291a2.085 2.085 0 0 0-2.083 2.083v2.084a2.085 2.085 0 0 0 2.083 2.083h2.084a2.085 2.085 0 0 0 2.083-2.083V10.25a2.085 2.085 0 0 0-2.083-2.083zm-8.332 7.291H10.25a3.128 3.128 0 0 1-3.125-3.124V10.25a3.128 3.128 0 0 1 3.125-3.125h2.084a3.128 3.128 0 0 1 3.124 3.125v2.084a3.128 3.128 0 0 1-3.124 3.124zM10.25 8.167a2.085 2.085 0 0 0-2.083 2.083v2.084a2.085 2.085 0 0 0 2.083 2.083h2.084a2.085 2.085 0 0 0 2.083-2.083V10.25a2.085 2.085 0 0 0-2.083-2.083z"/>
    </g>
</svg>
