<svg data-name="Component 2313 – 6" xmlns="http://www.w3.org/2000/svg" width="32" height="32" viewBox="0 0 32 32">
    <rect data-name="Rectangle 4043" width="32" height="32" rx="5" style="fill:#ffffff00"/>
    <g data-name="Light 1px/checkbox">
        <path data-name="Light 1px/checkbox background" style="fill:#ffffff00" d="M0 0h25v25H0z" transform="translate(4 4)"/>
        <path data-name="Combined Shape" d="M22.75 25.875h-12.5a3.128 3.128 0 0 1-3.125-3.125v-12.5a3.128 3.128 0 0 1 3.125-3.125h12.5a3.128 3.128 0 0 1 3.125 3.125v12.5a3.128 3.128 0 0 1-3.125 3.125zM10.25 8.167a2.085 2.085 0 0 0-2.083 2.083v12.5a2.085 2.085 0 0 0 2.083 2.083h12.5a2.085 2.085 0 0 0 2.083-2.083v-12.5a2.085 2.085 0 0 0-2.083-2.083z"/>
        <path data-name="Vector 408 (Stroke)" d="m21.035 13.743-5.513 5.511a1.562 1.562 0 0 1-2.21 0l-1.867-1.865a.521.521 0 0 1 .736-.735l1.868 1.866a.521.521 0 0 0 .737 0l5.513-5.513a.521.521 0 0 1 .737.737z"/>
    </g>
</svg>
