<svg data-name="Component 2294 – 6" xmlns="http://www.w3.org/2000/svg" width="32" height="32" viewBox="0 0 32 32">
    <rect data-name="Rectangle 3962" width="32" height="32" rx="5" style="fill:#ffffff00"/>
    <g data-name="Light 1px/eye_dropper">
        <path data-name="Light 1px/eye_dropper background" style="fill:#ffffff00" d="M0 0h25v25H0z" transform="translate(4 4)"/>
        <path data-name="Combined Shape" d="M10.239 25.577a2.067 2.067 0 0 1-1.472-.61l-.737-.736a2.086 2.086 0 0 1 0-2.947 3.145 3.145 0 0 0 .884-1.768L8.987 19a3.144 3.144 0 0 1 .884-1.767l4.455-4.456a2.615 2.615 0 0 1 .332-3.278 2.6 2.6 0 0 1 3.277-.331l.773-.773a4.166 4.166 0 1 1 5.892 5.892l-.773.773a2.6 2.6 0 0 1-3.607 3.617l-4.457 4.452a3.144 3.144 0 0 1-1.767.884l-.516.074a3.145 3.145 0 0 0-1.768.883 2.07 2.07 0 0 1-1.473.607zm4.788-12.023-4.42 4.423a2.1 2.1 0 0 0-.59 1.178l-.073.516a4.192 4.192 0 0 1-1.178 2.357 1.043 1.043 0 0 0 0 1.473l.736.737a1.042 1.042 0 0 0 1.474 0 4.192 4.192 0 0 1 2.357-1.178l.516-.074a2.1 2.1 0 0 0 1.178-.589l4.419-4.42-4.419-4.423zM16.5 9.777a1.562 1.562 0 0 0-1.106 2.672l5.156 5.156a1.563 1.563 0 0 0 2.41-1.966l-.47-.71 1.375-1.376a3.125 3.125 0 0 0-4.419-4.419l-1.375 1.376-.711-.471a1.551 1.551 0 0 0-.86-.262z"/>
    </g>
</svg>
