<svg data-name="Light 1px/messages" xmlns="http://www.w3.org/2000/svg" width="25" height="25" viewBox="0 0 25 25">
    <path data-name="Light 1px/messages background" style="fill:#fff" d="M0 0h25v25H0z"/>
    <path data-name="Combined Shape" d="M4.176 22.753a2.1 2.1 0 0 1-2.093-2.087v-9.207a3.128 3.128 0 0 1 3.125-3.125h1.041V7.291a3.129 3.129 0 0 1 3.126-3.124h7.292l3.01-2.007a2.069 2.069 0 0 1 1.15-.354 2.09 2.09 0 0 1 2.089 2.087v9.649a3.128 3.128 0 0 1-3.125 3.125H18.75v1.039a3.129 3.129 0 0 1-3.126 3.125H7.292l-1.825 1.461a2.05 2.05 0 0 1-1.291.461zM5.208 9.376a2.085 2.085 0 0 0-2.083 2.083v9.207a1.047 1.047 0 0 0 1.046 1.04 1.025 1.025 0 0 0 .646-.23l1.823-1.459a1.049 1.049 0 0 1 .652-.228h8.332a2.086 2.086 0 0 0 2.084-2.083v-6.247a2.086 2.086 0 0 0-2.084-2.083zm4.167-4.17a2.085 2.085 0 0 0-2.083 2.085v1.043h8.332a3.129 3.129 0 0 1 3.126 3.125v4.166h1.042a2.085 2.085 0 0 0 2.083-2.083V3.893a1.045 1.045 0 0 0-1.045-1.044 1.033 1.033 0 0 0-.574.176l-3.012 2.009a1.044 1.044 0 0 1-.578.174z"/>
    <path data-name="Vector 409 (Stroke)" d="M7.292 14.063h6.25a.521.521 0 1 1 0 1.042h-6.25a.521.521 0 0 1 0-1.042z"/>
</svg>
