
<svg data-name="Component 2284 – 6" xmlns="http://www.w3.org/2000/svg" width="32" height="32" viewBox="0 0 32 32">
    <rect data-name="Rectangle 3946" width="32" height="32" rx="5" style="fill:#ffffff00"/>
    <g data-name="Light 1px/justify">
        <path data-name="Light 1px/justify background" style="fill:#ffffff00" d="M0 0h25v25H0z" transform="translate(4 4)"/>
        <path data-name="Vector 605 (Stroke)" d="M8.167 9.729h16.667a.521.521 0 0 1 0 1.042H8.167a.521.521 0 0 1 0-1.042z"/>
        <path data-name="Vector 606 (Stroke)" d="M8.167 13.896h16.667a.521.521 0 0 1 0 1.042H8.167a.521.521 0 0 1 0-1.042z"/>
        <path data-name="Vector 607 (Stroke)" d="M8.167 18.062h16.667a.521.521 0 0 1 0 1.042H8.167a.521.521 0 0 1 0-1.042z"/>
        <path data-name="Vector 608 (Stroke)" d="M8.167 22.229h16.667a.521.521 0 0 1 0 1.042H8.167a.521.521 0 0 1 0-1.042z"/>
    </g>
</svg>
