<svg data-name="Light 1px/vector" xmlns="http://www.w3.org/2000/svg" width="25" height="25" viewBox="0 0 25 25">
    <path data-name="Light 1px/vector background" style="fill:#fff0" d="M0 0h25v25H0z"/>
    <path data-name="Combined Shape" d="M19.791 20.834h-2.083a2.086 2.086 0 0 1-2.084-2.083v-2.084a2.086 2.086 0 0 1 2.084-2.083h.52v-1.042a5.709 5.709 0 0 0-2.638-4.825 2.084 2.084 0 0 1-2.048 1.7h-2.084a2.083 2.083 0 0 1-2.048-1.7 5.709 5.709 0 0 0-2.639 4.825v1.042h.521a2.085 2.085 0 0 1 2.083 2.083v2.084a2.085 2.085 0 0 1-2.083 2.083H5.208a2.085 2.085 0 0 1-2.083-2.083v-2.084a2.085 2.085 0 0 1 2.083-2.083h.521v-1.042a6.741 6.741 0 0 1 3.16-5.729H6.183a2.084 2.084 0 1 1 0-1.046h3.192V6.25a2.085 2.085 0 0 1 2.083-2.083h2.083a2.085 2.085 0 0 1 2.083 2.083v.517h3.191a2.084 2.084 0 1 1 0 1.042H16.11a6.742 6.742 0 0 1 3.16 5.729v1.042h.521a2.085 2.085 0 0 1 2.084 2.087v2.084a2.085 2.085 0 0 1-2.084 2.083zm-2.083-5.209a1.043 1.043 0 0 0-1.041 1.042v2.084a1.043 1.043 0 0 0 1.042 1.042h2.083a1.043 1.043 0 0 0 1.042-1.042v-2.084a1.043 1.043 0 0 0-1.042-1.042zm-12.5 0a1.043 1.043 0 0 0-1.042 1.042v2.084a1.043 1.043 0 0 0 1.042 1.042h2.084a1.043 1.043 0 0 0 1.041-1.042v-2.084a1.043 1.043 0 0 0-1.042-1.042zm6.25-10.416a1.043 1.043 0 0 0-1.042 1.041v2.083a1.043 1.043 0 0 0 1.042 1.043h2.083a1.043 1.043 0 0 0 1.042-1.043V6.25a1.043 1.043 0 0 0-1.042-1.042zm9.375 1.041a1.045 1.045 0 0 0-.9.521 1.041 1.041 0 0 0 0 1.042 1.042 1.042 0 1 0 .9-1.563zm-16.667 0a1.04 1.04 0 1 0 .9.521 1.043 1.043 0 0 0-.9-.521z"/>
</svg>
