<svg data-name="Component 2312 – 6" xmlns="http://www.w3.org/2000/svg" width="32" height="32" viewBox="0 0 32 32">
    <rect data-name="Rectangle 4035" width="32" height="32" rx="5" style="fill:#ffffff00"/>
    <g data-name="Light 1px/smile">
        <path data-name="Light 1px/smile background" style="fill:#ffffff00" d="M0 0h25v25H0z" transform="translate(4 4)"/>
        <path data-name="Combined Shape" d="M16.5 26.916A10.417 10.417 0 1 1 26.916 16.5 10.428 10.428 0 0 1 16.5 26.916zm0-19.792a9.375 9.375 0 1 0 9.375 9.375A9.386 9.386 0 0 0 16.5 7.125z"/>
        <path data-name="Ellipse 204 (Stroke)" d="M12.204 18.374a4.689 4.689 0 0 0 4.3 2.813 4.689 4.689 0 0 0 4.294-2.813.521.521 0 0 1 .955.417 5.73 5.73 0 0 1-5.249 3.438 5.73 5.73 0 0 1-5.256-3.438.521.521 0 0 1 .956-.417z"/>
        <path data-name="Ellipse 202" d="M12.333 14.416a1.042 1.042 0 1 1 1.041-1.041 1.042 1.042 0 0 1-1.041 1.041z"/>
        <path data-name="Ellipse 203" d="M20.667 14.416a1.042 1.042 0 1 1 1.041-1.041 1.042 1.042 0 0 1-1.041 1.041z"/>
    </g>
</svg>
