<svg data-name="Light 1px/photos" xmlns="http://www.w3.org/2000/svg" width="25" height="25" viewBox="0 0 25 25">
    <path data-name="Light 1px/photos background" style="fill:#fff" d="M0 0h25v25H0z"/>
    <path data-name="Combined Shape" d="M15.624 22.916H5.208a3.128 3.128 0 0 1-3.125-3.125V9.375a3.129 3.129 0 0 1 3.125-3.126h1.041V5.208a3.129 3.129 0 0 1 3.126-3.125h10.416a3.128 3.128 0 0 1 3.125 3.125v10.416a3.114 3.114 0 0 1-.876 2.17l-.039.039a3.1 3.1 0 0 1-2.21.916H18.75v1.042a3.129 3.129 0 0 1-3.126 3.125zM5.208 7.292a2.085 2.085 0 0 0-2.083 2.083v10.416a2.085 2.085 0 0 0 2.083 2.083h10.416a2.086 2.086 0 0 0 2.084-2.083V18.75H9.375a3.113 3.113 0 0 1-3.109-2.806v-.039a2.976 2.976 0 0 1-.013-.28V7.292zm6.363 1.621a2.081 2.081 0 0 0-1.6.75l-2.679 3.213v2.748a2.086 2.086 0 0 0 2.083 2.084h10.416a2.072 2.072 0 0 0 .659-.107l-7.344-8.012a2.059 2.059 0 0 0-1.535-.676zm0-1.041a3.091 3.091 0 0 1 2.3 1.013l7.461 8.139a2.077 2.077 0 0 0 .54-1.4V5.208a2.085 2.085 0 0 0-2.083-2.083H9.375a2.085 2.085 0 0 0-2.083 2.083v6.042L9.17 8.996a3.118 3.118 0 0 1 2.401-1.124z"/>
    <path data-name="Combined Shape" d="M18.229 8.333a1.562 1.562 0 1 1 1.562-1.562 1.564 1.564 0 0 1-1.562 1.562zm0-2.083a.521.521 0 1 0 .52.521.522.522 0 0 0-.52-.521z"/>
</svg>
