<svg data-name="Component 2318 – 8" xmlns="http://www.w3.org/2000/svg" width="32" height="32" viewBox="0 0 32 32">
    <rect data-name="Rectangle 4051" width="32" height="32" rx="5" style="fill:#ffffff00"/>
    <g data-name="Light 1px/sort_decending">
        <path data-name="Light 1px/sort_decending background" style="fill:#ffffff00" d="M0 0h25v25H0z" transform="translate(4 4)"/>
        <path data-name="Path 13 Copy 5 (Stroke)" d="M17.542 10.771h8.333a.521.521 0 1 1 0 1.042h-8.333a.521.521 0 0 1 0-1.042z"/>
        <path data-name="Path 13 Copy 6 (Stroke)" d="M17.802 17.022h7.813c.431 0 .781-.233.781-.521s-.35-.521-.781-.521h-7.813c-.431 0-.781.233-.781.521s.35.521.781.521z"/>
        <path data-name="Path 13 Copy 7 (Stroke)" d="M18.584 22.23h6.25c.863 0 1.563-.233 1.563-.521s-.701-.521-1.564-.521h-6.249c-.863 0-1.563.233-1.563.521s.7.521 1.563.521z"/>
        <text data-name="&lt;" transform="rotate(90 -1.5 9.5)" style="font-size:8px;font-family:SourceSerifPro-Regular,Source Serif Pro"><tspan x="-2.124" y="0">&lt;</tspan></text>
        <path data-name="Line 340" transform="translate(10.5 12.709)" style="fill:none;stroke:#000;stroke-width:.5px" d="M0 0v9"/>
    </g>
</svg>
