<svg data-name="Component 2290 – 9" xmlns="http://www.w3.org/2000/svg" width="32" height="32" viewBox="0 0 32 32">
    <rect data-name="Rectangle 3959" width="32" height="32" rx="5" style="fill:#ffffff00"/>
    <g data-name="Light 1px/list">
        <path data-name="Light 1px/list background" style="fill:#ffffff00" d="M0 0h25v25H0z" transform="translate(4 4)"/>
        <path data-name="Vector 567 (Stroke)" d="M11.813 10.771h12.5a.521.521 0 0 1 0 1.042h-12.5a.521.521 0 0 1 0-1.042z"/>
        <path data-name="Vector 568 (Stroke)" d="M11.813 15.979h12.5a.521.521 0 0 1 0 1.042h-12.5a.521.521 0 0 1 0-1.042z"/>
        <path data-name="Vector 569 (Stroke)" d="M11.813 21.188h12.5a.521.521 0 0 1 0 1.042h-12.5a.521.521 0 0 1 0-1.042z"/>
        <text data-name="1" transform="translate(9 11)" style="font-size:4px;font-family:SourceSerifPro-Regular,Source Serif Pro"><tspan x="-1" y="0">1</tspan></text>
        <text data-name="2" transform="translate(9 17)" style="font-size:4px;font-family:SourceSerifPro-Regular,Source Serif Pro"><tspan x="-1" y="0">2</tspan></text>
        <text data-name="3" transform="translate(9 23)" style="font-size:4px;font-family:SourceSerifPro-Regular,Source Serif Pro"><tspan x="-1" y="0">3</tspan></text>
    </g>
</svg>
