<svg data-name="Light 1px/group" xmlns="http://www.w3.org/2000/svg" width="25" height="25" viewBox="0 0 25 25">
    <path data-name="Light 1px/group background" style="fill:#fff0" d="M0 0h25v25H0z"/>
    <path d="M21.354 18.751v2.083a.521.521 0 1 0 1.042 0v-2.083a4.688 4.688 0 0 0-4.688-4.688h-.872a5.762 5.762 0 0 1 1.132 1.051 3.646 3.646 0 0 1 3.386 3.637z"/>
    <path data-name="Vector 631 (Stroke)" d="M3.646 18.751v2.083a.521.521 0 1 1-1.042 0v-2.083a4.688 4.688 0 0 1 4.688-4.688h6.25a4.687 4.687 0 0 1 4.687 4.688v2.083a.521.521 0 1 1-1.042 0v-2.083a3.646 3.646 0 0 0-3.646-3.646H7.292a3.646 3.646 0 0 0-3.646 3.646z"/>
    <path data-name="Subtract" d="M17.708 7.292a3.125 3.125 0 0 0-3.124-3.125 5.239 5.239 0 0 0-.913-.942 4.167 4.167 0 1 1 0 8.133 5.239 5.239 0 0 0 .913-.942 3.125 3.125 0 0 0 3.124-3.124z"/>
    <path data-name="Combined Shape" d="M10.416 11.458a4.167 4.167 0 1 1 4.167-4.167 4.171 4.171 0 0 1-4.167 4.167zm0-7.292a3.125 3.125 0 1 0 3.126 3.125 3.128 3.128 0 0 0-3.126-3.124z"/>
</svg>
