<svg data-name="Light 1px/presentation" xmlns="http://www.w3.org/2000/svg" width="25" height="25" viewBox="0 0 25 25">
    <path data-name="Light 1px/presentation background" style="fill:#fff" d="M0 0h25v25H0z"/>
    <path data-name="Combined Shape" d="M19.791 21.667H5.208a3.129 3.129 0 0 1-3.125-3.126V8.124a.521.521 0 1 1 0-1.041h20.833a.521.521 0 1 1 0 1.041v10.417c0 1.7-3.093 3.112-3.125 3.126zM3.124 8.124v10.417a2.086 2.086 0 0 0 2.084 2.083h14.583a2.085 2.085 0 0 0 2.083-2.083V8.124zm6.251 8.859a2.6 2.6 0 1 1 2.6-2.6 2.607 2.607 0 0 1-2.6 2.6zm0-4.166a1.562 1.562 0 1 0 1.562 1.558 1.565 1.565 0 0 0-1.562-1.563zm9.374 3.646h-4.166a.521.521 0 0 1 0-1.042h4.166a.521.521 0 1 1 0 1.042zm0-3.126h-4.166a.521.521 0 1 1 0-1.041h4.166a.521.521 0 1 1 0 1.041z"/>
</svg>
