<svg xmlns="http://www.w3.org/2000/svg" data-name="Light 1px/redo" width="20" height="20" style=""><rect id="backgroundrect" width="100%" height="100%" x="0" y="0" fill="none" stroke="none"/>
    
    
<g class="currentLayer" style=""><title>Layer 1</title><path data-name="Light 1px/redo background" style="fill:#fff" d="M-0.08163265138864517,0 h20 v20 H-0.08163265138864517 z" id="svg_1" class="selected" opacity="0"/><path d="M11.158 7.411a6.64 6.64 0 0 1 4.644 4.5l-2-.541a.417.417 0 1 0-.218.8l2.656.72a.415.415 0 0 0 .062.017l.353.1a.417.417 0 0 0 .511-.294l.823-3.073a.417.417 0 1 0-.8-.216l-.6 2.221a7.472 7.472 0 0 0-5.215-5.039 7.574 7.574 0 0 0-9.277 5.356.417.417 0 1 0 .8.216 6.741 6.741 0 0 1 8.261-4.767z" id="svg_2"/></g></svg>