<svg data-name="Light 1px/video_recorder" xmlns="http://www.w3.org/2000/svg" width="25" height="25" viewBox="0 0 25 25">
    <path data-name="Light 1px/video_recorder background" style="fill:#fff" d="M0 0h25v25H0z"/>
    <path data-name="Combined Shape" d="M14.583 19.792H5.208a3.129 3.129 0 0 1-3.125-3.126V8.333a3.128 3.128 0 0 1 3.125-3.125h9.375a3.129 3.129 0 0 1 3.126 3.125v1.216l2.646-2.2a1.534 1.534 0 0 1 .992-.365 1.571 1.571 0 0 1 1.57 1.565v7.912a1.572 1.572 0 0 1-1.571 1.566 1.534 1.534 0 0 1-.991-.365l-2.646-2.2v1.215a3.129 3.129 0 0 1-3.126 3.115zM5.208 6.25a2.085 2.085 0 0 0-2.083 2.083v8.333a2.085 2.085 0 0 0 2.083 2.083h9.375a2.086 2.086 0 0 0 2.084-2.083V8.333a2.086 2.086 0 0 0-2.084-2.083zm16.144 1.772a.512.512 0 0 0-.331.122l-3.313 2.764v3.187l3.312 2.76a.512.512 0 0 0 .331.121.534.534 0 0 0 .363-.144.513.513 0 0 0 .161-.377V8.544a.523.523 0 0 0-.523-.522z"/>
</svg>
