<svg data-name="Component 2307 – 7" xmlns="http://www.w3.org/2000/svg" width="32" height="32" viewBox="0 0 32 32">
    <rect data-name="Rectangle 4023" width="32" height="32" rx="5" style="fill:#ffffff00"/>
    <g data-name="Light 1px/sort_decending">
        <path data-name="Light 1px/sort_decending background" style="fill:#ffffff00" d="M0 0h25v25H0z" transform="translate(4 4)"/>
        <path d="M7.072 16.499c0 .172.093.312.207.312h5.5l-.886 1.339a.432.432 0 0 0 0 .441.163.163 0 0 0 .293 0l.949-1.43a1.3 1.3 0 0 0 0-1.323l-.949-1.43a.163.163 0 0 0-.293 0 .432.432 0 0 0 0 .441l.888 1.334H7.279c-.114 0-.207.144-.207.316z"/>
        <path data-name="Path 13 Copy 5 (Stroke)" d="M17.542 10.771h8.333a.521.521 0 1 1 0 1.042h-8.333a.521.521 0 0 1 0-1.042z"/>
        <path data-name="Path 13 Copy 6 (Stroke)" d="M17.542 17.022h5.208a.521.521 0 0 0 .521-.521.521.521 0 0 0-.521-.521h-5.208a.521.521 0 0 0-.521.521.521.521 0 0 0 .521.521z"/>
        <path data-name="Path 13 Copy 7 (Stroke)" d="M17.542 22.23h2.079a.521.521 0 0 0 .521-.521.521.521 0 0 0-.521-.521h-2.079a.521.521 0 0 0-.521.521.521.521 0 0 0 .521.521z"/>
    </g>
</svg>
