<svg data-name="Component 2288 – 3" xmlns="http://www.w3.org/2000/svg" width="32" height="32" viewBox="0 0 32 32">
    <rect data-name="Rectangle 3957" width="32" height="32" rx="5" style="fill:#ffffff00"/>
    <g data-name="Light 1px/underline">
        <path data-name="Light 1px/underline background" style="fill:#ffffff00" d="M0 0h25v25H0z" transform="translate(4 4)"/>
        <path data-name="Vector 55 (Stroke)" d="M10.25 25.354h12.5a.521.521 0 0 1 0 1.042h-12.5a.521.521 0 0 1 0-1.042z"/>
        <path data-name="Rectangle 31 (Stroke)" d="M10.771 7.125v8.854a5.729 5.729 0 0 0 11.458 0V7.125a.521.521 0 1 1 1.042 0v8.854a6.771 6.771 0 0 1-13.542 0V7.125a.521.521 0 0 1 1.042 0z"/>
    </g>
</svg>
