<svg xmlns="http://www.w3.org/2000/svg" data-name="Light 1px/undo" width="20" height="20" style=""><rect id="backgroundrect" width="100%" height="100%" x="0" y="0" fill="none" stroke="none"/>
    
    
<g class="currentLayer" style=""><title>Layer 1</title><path data-name="Light 1px/undo background" style="fill:#fff" d="M0 0h20v20H0z" id="svg_1" class="" opacity="0"/><path d="M8.931 7.411a6.64 6.64 0 0 0-4.648 4.495l2-.541a.417.417 0 0 1 .218.8l-2.656.72a.415.415 0 0 1-.062.017l-.353.1a.417.417 0 0 1-.511-.294l-.822-3.074a.417.417 0 0 1 .8-.216l.6 2.221a7.472 7.472 0 0 1 5.219-5.033 7.574 7.574 0 0 1 9.276 5.356.417.417 0 0 1-.8.216 6.741 6.741 0 0 0-8.261-4.767z" id="svg_2"/></g></svg>