<svg xmlns="http://www.w3.org/2000/svg" data-name="Light 1px/list" width="32.18367346938777" height="32.836734693877546" style=""><rect id="backgroundrect" width="100%" height="100%" x="0" y="0" fill="none" stroke="none"/>
    
    
<g class="currentLayer" style=""><title>Layer 1</title><path data-name="Light 1px/list background" style="fill:#fff" d="M0,-0.08163265138864517 h25 v25 H0 z" id="svg_1" class="" opacity="0"/><g id="svg_2" class="" transform="translate(-0.2448979616165161,-0.16326530277729034) ">
        <path data-name="Vector 567 (Stroke)" d="M11.567601414680482,11.015398308634758 h12.5 a0.521,0.521 0 0 1 0,1.042 h-12.5 a0.521,0.521 0 0 1 0,-1.042 z" id="svg_3"/>
        <path data-name="Vector 568 (Stroke)" d="M11.567601414680482,16.223398308634756 h12.5 a0.521,0.521 0 0 1 0,1.042 h-12.5 a0.521,0.521 0 0 1 0,-1.042 z" id="svg_4"/>
        <path data-name="Vector 569 (Stroke)" d="M11.567601414680482,21.43239830863476 h12.5 a0.521,0.521 0 0 1 0,1.042 h-12.5 a0.521,0.521 0 0 1 0,-1.042 z" id="svg_5"/>
        <circle data-name="Ellipse 180" cx="8.442601323127747" cy="11.536398217082024" r="0.5210000276565552" id="svg_6"/>
        <circle data-name="Ellipse 183" cx="8.442601323127747" cy="16.744398400187492" r="0.5210000276565552" id="svg_7"/>
        <circle data-name="Ellipse 184" cx="8.442601323127747" cy="21.953398033976555" r="0.5210000276565552" id="svg_8"/>
    </g></g></svg>