<svg data-name="Light 1px/files" xmlns="http://www.w3.org/2000/svg" width="30" height="30" viewBox="0 0 30 30">
    <path data-name="Light 1px/files background" style="fill:#ffffff00" d="M0 0h30v30H0z"/>
    <path data-name="Combined Shape" d="M17.5 27.5h-10a3.754 3.754 0 0 1-3.75-3.75v-12.5A3.754 3.754 0 0 1 7.5 7.5h1.25V6.25A3.754 3.754 0 0 1 12.5 2.5h7.2c.1 0 .2 0 .3.012V2.5a3.051 3.051 0 0 1 1.25.271 3 3 0 0 1 .883.613l3.232 3.232a3 3 0 0 1 .614.884 3.05 3.05 0 0 1 .271 1.251h-.013c.009.112.013.212.013.3v9.7A3.754 3.754 0 0 1 22.5 22.5h-1.25v1.25a3.754 3.754 0 0 1-3.75 3.75zM7.5 8.751a2.5 2.5 0 0 0-2.5 2.5v12.5a2.5 2.5 0 0 0 2.5 2.5h10a2.5 2.5 0 0 0 2.5-2.5V22.5h-7.5a3.755 3.755 0 0 1-3.75-3.75v-10zm5-5a2.5 2.5 0 0 0-2.5 2.5v12.5a2.5 2.5 0 0 0 2.5 2.5h10a2.5 2.5 0 0 0 2.5-2.5v-9.7a2.478 2.478 0 0 0-.019-.3H22.5a2.5 2.5 0 0 1-2.5-2.5V3.769a2.488 2.488 0 0 0-.3-.019zm8.75.541V6.25A1.251 1.251 0 0 0 22.5 7.5h1.959a2.459 2.459 0 0 0-.191-.214l-2.8-2.8a2.439 2.439 0 0 0-.218-.195z"/>
</svg>
