<svg data-name="Light 1px/person" xmlns="http://www.w3.org/2000/svg" width="25" height="25" viewBox="0 0 25 25">
    <path data-name="Light 1px/person background" style="fill:#fff0" d="M0 0h25v25H0z"/>
    <path data-name="Vector 631 (Stroke)" d="M4.688 20.833v1.042a.521.521 0 1 1-1.042 0v-1.042a5.729 5.729 0 0 1 5.729-5.729h6.25a5.729 5.729 0 0 1 5.729 5.729v1.042a.521.521 0 1 1-1.042 0v-1.042a4.687 4.687 0 0 0-4.687-4.687h-6.25a4.688 4.688 0 0 0-4.687 4.687z"/>
    <path data-name="Combined Shape" d="M12.501 12.5a5.208 5.208 0 1 1 5.208-5.208 5.214 5.214 0 0 1-5.208 5.208zm0-9.375a4.167 4.167 0 1 0 4.166 4.167 4.172 4.172 0 0 0-4.166-4.167z"/>
</svg>
